<svg width="257" height="268" viewBox="0 0 257 268" fill="none" xmlns="http://www.w3.org/2000/svg">
<path d="M163.139 256.5V230H185.139C189.139 230 193.139 224.667 194.639 222V200C194.639 194 188.305 189.167 185.139 187.5H169.639C166.039 187.5 163.805 181.5 163.139 178.5V121.5C163.139 117.5 159.139 111.833 157.139 109.5H119.139C111.539 109.5 112.639 112.833 114.139 114.5L46.6387 200V217C46.6387 220.6 56.972 227.167 62.1387 230H119.139V256.5L128.639 267H157.139C161.539 267 162.972 260 163.139 256.5Z" fill="#4A90E2" stroke="white"/>
<path d="M123 167V191.5H103C97.4003 191.5 100.667 187.167 103 185C106.5 177.5 111 171.5 115.5 167C121.696 160.805 122.331 163.82 122.996 166.978L123 167Z" fill="white" stroke="white"/>
<path d="M127.139 1C98.7387 1 90.972 31 90.6387 46C90.6387 61.3333 97.9387 92.2 127.139 93C156.339 93.8 164.639 62 165.139 46C164.305 31 155.539 1 127.139 1Z" fill="#4A90E2" stroke="white"/>
<path d="M220.072 40.3735C192.639 33.0231 177.373 59.9907 173.169 74.3933C169.2 89.2042 168.262 120.908 196.26 129.239C224.258 137.569 240.506 109.001 245.13 93.6753C248.207 78.9707 247.504 47.724 220.072 40.3735Z" fill="#4A90E2" stroke="white"/>
<path d="M35.2563 39.7618C7.824 47.1123 8.08655 78.1002 11.6469 92.6754C15.6154 107.486 30.6556 135.412 59.0676 128.627C87.4797 121.842 87.2665 88.9776 83.6083 73.3934C78.9211 59.1202 62.6886 32.4114 35.2563 39.7618Z" fill="#4A90E2" stroke="white"/>
</svg>
